<svg width="1832" height="1330" viewBox="0 0 1832 1330" fill="none" xmlns="http://www.w3.org/2000/svg">
<path d="M141.518 1.5641C142.161 1.69907 142.805 1.83404 143.468 1.9731C147.343 2.83962 150.532 3.96959 153.93 6.0248C155.358 6.90765 155.358 6.90765 157.489 7.74006C165.36 11.1963 165.36 11.1963 167.661 14.6522C168.789 15.3131 169.92 15.9712 171.069 16.595C172.236 17.2699 172.236 17.2699 173.788 18.5378C175.737 20.0714 177.772 21.1866 179.959 22.3441C181.404 23.1697 182.691 24.0973 184 25.1227C183.831 27.2496 183.218 27.8685 181.677 29.4096C180.96 30.0195 180.236 30.6216 179.507 31.2169C179.126 31.5338 178.746 31.8506 178.354 32.1771C175.454 34.5491 172.423 36.5944 169.218 38.5355C167.814 39.4231 166.585 40.3546 165.332 41.442C163.739 42.7917 163.739 42.7917 162.432 42.7917C162.297 43.2101 162.162 43.6286 162.024 44.0597C161.125 45.4094 161.125 45.4094 159.358 45.9948C156.555 46.0845 155.245 45.0156 153.2 43.2825C152.652 42.8385 152.652 42.8385 152.093 42.3854C148.203 39.1934 144.5 35.7982 140.864 32.3212C140.332 31.8151 139.799 31.3089 139.251 30.7875C137.791 29.3662 136.378 27.9153 134.982 26.4316C134.509 25.9372 134.037 25.4429 133.55 24.9336C130.209 21.1513 128.834 17.6674 127.719 12.7555C127.145 10.7461 126.464 9.70972 125.178 8.10817C124.796 5.53817 124.952 4.52131 126.404 2.3412C130.277 -1.65101 136.665 0.427565 141.518 1.5641Z" fill="#AC1CA2"/>
<path d="M211.245 61.0295C213.369 61.7483 214.272 62.7501 215.771 64.4157C217.46 66.2027 218.938 67.7461 221.111 68.9001C223.698 70.3007 225.652 72.0302 227.826 73.996C228.368 74.4526 228.368 74.4526 228.921 74.9184C233.423 78.7402 237.496 83.031 241.631 87.246C242.563 88.1939 243.504 89.1345 244.445 90.0736C245.971 91.6295 247.421 93.2328 248.862 94.8688C250.449 96.6633 252.034 98.4247 253.757 100.087C255.011 101.392 255.011 101.392 255.011 102.696C255.572 102.938 255.572 102.938 256.144 103.185C258.375 104.435 259.804 105.932 261.072 108.161C262.163 109.922 263.306 111.142 264.801 112.562C274.566 122.177 274.566 122.177 276.29 128.135C277.18 130.526 278.388 131.651 280.255 133.353C282.358 135.276 283.556 137.096 284.786 139.672C285.116 140.358 285.446 141.044 285.787 141.751C286.829 144.009 287.821 146.284 288.76 148.587C289.249 149.785 289.249 149.785 290.611 150.312C290.926 151.491 290.926 151.491 291.139 153.023C291.22 153.583 291.3 154.143 291.383 154.72C291.462 155.31 291.541 155.901 291.622 156.509C291.704 157.079 291.785 157.649 291.869 158.236C292.383 161.893 292.811 165.556 293.2 169.228C293.414 169.228 293.627 169.228 293.847 169.228C294.061 173.318 294.275 177.408 294.495 181.621C294.922 181.621 295.349 181.621 295.789 181.621C296.556 186.855 297.268 191.97 297.084 197.276C297.511 197.276 297.938 197.276 298.378 197.276C298.481 197.918 298.584 198.559 298.689 199.22C302.005 221.433 302.005 221.433 310.676 241.631C311.612 244.849 312.12 247.919 312.439 251.249C312.61 252.651 312.887 253.959 313.225 255.329C314.052 258.816 314.387 262.359 314.756 265.919C314.992 268.534 314.992 268.534 315.855 270.983C316.015 273.997 315.974 277.016 315.976 280.034C315.984 280.864 315.992 281.695 316 282.551C316.008 287.744 315.599 292.638 314.56 297.727C314.133 297.727 313.706 297.727 313.265 297.727C313.332 298.413 313.399 299.099 313.468 299.806C313.468 303.208 312.233 305.966 310.957 309.073C310.292 310.758 309.7 312.398 309.162 314.123C309.022 314.57 308.883 315.016 308.739 315.477C308.47 316.35 308.207 317.226 307.95 318.103C307.577 319.303 307.577 319.303 306.793 321.209C306.152 321.424 305.511 321.639 304.851 321.861C304.372 323.148 303.953 324.459 303.556 325.774C302.747 327.756 301.863 329.701 300.967 331.645C300.767 332.084 300.567 332.523 300.361 332.975C298.999 335.844 297.375 338.41 295.594 341.032C294.292 343.047 293.116 345.123 291.946 347.218C288.272 353.768 284.199 359.954 279.822 366.045C278.826 367.435 277.874 368.836 276.93 370.264C275.559 372.335 274.144 374.154 272.487 376C272.06 376 271.633 376 271.193 376C271.037 376.357 270.881 376.714 270.72 377.083C269.706 378.966 268.46 380.503 267.107 382.156C266.616 382.76 266.124 383.365 265.618 383.988C264.093 385.76 262.502 387.407 260.837 389.045C260.027 389.847 259.218 390.648 258.409 391.45C258.026 391.83 257.642 392.209 257.246 392.6C256.243 393.582 256.243 393.582 255.659 394.916C253.798 395.071 252.738 395.115 251.133 394.1C243.867 387.295 243.867 387.295 241.914 383.633C240.278 381.109 238.16 379.245 235.957 377.223C235.525 376.818 235.092 376.414 234.646 375.997C232.226 373.744 232.226 373.744 229.623 371.712C229.244 371.405 228.864 371.098 228.473 370.781C228.473 370.351 228.473 369.92 228.473 369.477C228.107 369.322 227.741 369.167 227.364 369.007C225.558 367.989 224.355 366.756 222.913 365.26C222.352 364.685 221.791 364.109 221.213 363.516C220.041 362.301 218.87 361.087 217.698 359.872C216.856 359.008 216.856 359.008 215.996 358.126C215.232 357.334 215.232 357.334 214.453 356.526C212.953 355.14 211.465 354.183 209.702 353.17C208.812 352.343 207.948 351.486 207.113 350.602C205.733 349.169 204.43 347.878 202.866 346.647C201.497 345.516 200.485 344.45 199.346 343.101C197.131 340.492 194.784 338.038 192.388 335.599C192.021 335.221 191.654 334.843 191.275 334.453C189.128 332.28 189.128 332.28 186.401 330.993C186.716 328.228 187.371 327.136 189.516 325.408C189.986 325.018 190.457 324.629 190.942 324.228C191.366 323.877 191.789 323.527 192.226 323.165C192.667 322.708 193.107 322.251 193.561 321.779C194.815 320.556 194.815 320.556 196.878 319.211C199.706 317.244 201.591 314.592 203.7 311.893C205.386 309.861 207.215 308.215 209.235 306.532C210.672 305.271 211.784 303.815 212.939 302.293C213.366 302.077 213.793 301.862 214.233 301.64C214.407 301.156 214.58 300.672 214.759 300.173C215.711 297.952 217.033 296.779 218.764 295.117C219.205 294.552 219.645 293.987 220.099 293.405C221.353 291.856 221.353 291.856 222.769 291C224.314 289.55 224.652 288.12 224.827 286.026C224.431 283.785 223.004 282.871 221.245 281.578C220.658 281.177 220.658 281.177 220.059 280.767C219.418 280.223 219.418 280.223 218.764 279.667C217.405 278.699 217.405 278.699 215.406 278.036C210.565 276.03 206.987 271.626 203.675 267.686C201.907 265.633 199.978 263.751 198.052 261.851C196.973 260.764 195.894 259.677 194.815 258.59C194.295 258.106 194.295 258.106 193.763 257.612C192.873 256.633 192.873 256.633 191.983 255.084C190.971 253.291 190.971 253.291 189.354 251.782C185.223 247.619 185.223 247.619 185 244.902C185.246 241.762 186.208 240.058 188.343 237.717C188.763 236.971 188.763 236.971 189.192 236.209C191.735 232.127 195.095 228.881 198.727 225.788C199.937 224.721 201.032 223.604 202.137 222.43C204.521 219.978 207.214 218.061 209.993 216.09C211.734 214.87 211.734 214.87 213.505 213.175C216.151 211.149 219.001 209.956 222.049 208.645C223.77 207.797 224.612 207.131 225.884 205.756C227.047 205.109 227.047 205.109 228.311 204.533C230.549 203.453 232.492 202.205 234.468 200.698C235.593 199.885 235.593 199.885 237.037 199.098C240.054 197.13 242.499 194.515 245.075 192.004C245.492 191.603 245.909 191.202 246.339 190.789C246.715 190.422 247.091 190.056 247.478 189.678C248.539 188.797 248.539 188.797 250.48 188.144C250.922 187.28 251.351 186.409 251.775 185.535C252.759 184.383 253.774 183.258 254.809 182.151C257.652 179.051 260.293 175.885 262.778 172.49C263.259 171.844 263.74 171.198 264.235 170.533C265.481 168.38 266.205 166.294 266.912 163.916C267.309 162.705 267.309 162.705 267.957 162.053C268.461 156.859 267.584 153.739 264.478 149.538C261.281 146.086 258.19 145.277 253.717 144.442C253.717 144.011 253.717 143.581 253.717 143.137C242.995 142.823 233.394 143.182 223.942 149.008C223.515 149.438 223.088 149.869 222.648 150.312C221.793 150.312 220.939 150.312 220.059 150.312C220.003 149.657 219.947 149.002 219.889 148.327C219.294 142.209 217.986 137.066 215.528 131.396C215.258 130.702 214.989 130.007 214.711 129.292C213.559 126.34 212.463 123.618 210.552 121.082C209.055 119.003 209.055 119.003 208.448 116.802C207.669 114.12 206.478 112.315 204.898 110.047C203.941 108.659 203.076 107.246 202.218 105.794C200.62 103.19 198.672 101.168 196.352 99.1902C195.462 98.1302 195.462 98.1302 194.664 96.0409C193.543 93.3446 191.884 91.4832 189.88 89.406C189.554 89.0588 189.229 88.7115 188.894 88.3537C187.859 87.2521 186.818 86.1574 185.753 85.0847C185.518 83.6298 185.518 83.6298 185.753 81.8233C187.061 80.1187 187.061 80.1187 188.868 78.3581C189.187 78.0464 189.505 77.7347 189.833 77.4136C192.512 74.8519 195.422 72.7111 198.456 70.5919C199.822 69.5592 200.807 68.6144 201.854 67.2694C203.286 65.445 204.467 64.6677 206.466 63.5596C207 63.0753 207.534 62.591 208.084 62.092C209.702 60.9505 209.702 60.9505 211.245 61.0295Z" fill="#AC1CA2"/>
<path d="M115.327 411.126C116.704 412.471 116.704 412.471 118.065 414.318C120.602 417.622 123.316 420.51 126.332 423.378C127.753 424.883 128.65 426.38 129.708 428.15C130.66 429.16 131.642 430.142 132.649 431.097C134.214 432.581 135.475 433.851 136.584 435.706C137.637 437.46 138.739 438.531 140.289 439.855C140.81 440.308 141.332 440.76 141.869 441.226C142.836 442.047 143.804 442.866 144.775 443.682C148.339 446.715 151.644 450.006 154.547 453.688C154.547 454.12 154.547 454.552 154.547 454.997C154.943 455.06 155.339 455.122 155.747 455.187C157.494 455.762 157.869 456.344 158.877 457.862C161.079 460.998 163.644 463.728 166.264 466.51C167.62 468.094 167.62 468.094 168.273 470.058C169.401 471.022 170.564 471.944 171.746 472.841C174.778 475.255 176.369 477.111 178.078 480.535C178.658 481.102 179.237 481.669 179.835 482.254C181.476 483.942 181.939 484.747 182 487.083C181.569 487.731 181.137 488.379 180.693 489.047C180.261 489.047 179.83 489.047 179.385 489.047C179.337 489.422 179.289 489.797 179.24 490.183C178.55 492.197 177.429 493.066 175.831 494.449C175.306 494.912 174.781 495.375 174.24 495.851C172.849 496.905 172.849 496.905 171.542 496.905C171.472 497.289 171.403 497.673 171.332 498.069C170.826 499.727 170.161 500.574 169.009 501.857C168.673 502.236 168.338 502.615 167.992 503.005C167.654 503.369 167.315 503.733 166.966 504.108C166.627 504.478 166.289 504.849 165.94 505.231C165.005 506.072 165.005 506.072 163.698 506.072C163.526 506.453 163.354 506.834 163.177 507.226C162.352 508.763 161.433 509.895 160.266 511.188C158.735 512.896 157.236 514.619 155.772 516.385C154.654 517.7 153.661 518.698 152.3 519.782C150.34 521.362 148.811 523.142 147.19 525.062C146.049 526.371 146.049 526.371 144.785 527.601C143.18 529.252 141.857 531.023 140.493 532.878C136.115 538.818 131.302 543.769 125.898 548.755C122.51 551.89 119.349 554.889 116.757 558.743C114.749 561.58 112.848 563.397 110.001 565.329C108.626 566.448 107.906 567.54 106.993 569.056C104.846 572.559 101.977 575.036 98.9223 577.722C96.9988 579.392 96.9988 579.392 95.2302 581.262C93.757 582.684 93.757 582.684 92.4496 582.684C92.2761 583.166 92.1025 583.647 91.9237 584.142C89.9599 588.707 86.4311 592.116 82.6704 595.243C81.203 596.556 79.9597 597.966 78.6821 599.464C77.1162 601.282 75.6418 602.781 73.6572 604.129C71.1103 605.896 69.5803 607.708 68.0603 610.391C65.4983 614.478 63.1994 617.374 58.4597 618.699C57.6696 620.008 57.6696 620.008 57.1524 621.318C56.5053 621.534 55.8582 621.75 55.1915 621.973C55.1915 622.405 55.1915 622.837 55.1915 623.282C54.5444 623.714 53.8972 624.147 53.2305 624.592C53.0148 625.24 52.7991 625.888 52.5769 626.556C49.9907 628.004 47.6537 628.185 44.733 627.866C42.6495 626.438 42.1977 625.591 41.6282 623.119C41.5743 622.524 41.5203 621.93 41.4648 621.318C41.0334 621.318 40.602 621.318 40.1575 621.318C40.0463 620.906 39.935 620.494 39.8204 620.07C38.2069 613.838 38.2069 613.838 34.6244 608.657C31.2482 604.99 30.146 598.594 29.0454 593.816C28.8297 593.6 28.614 593.384 28.3917 593.161C28.3652 592.07 28.3638 590.978 28.3917 589.887C27.9603 589.887 27.5289 589.887 27.0844 589.887C25.8941 587.126 24.7257 584.356 23.5711 581.579C23.2913 580.908 23.0116 580.237 22.7234 579.546C22.1374 578.128 21.5588 576.708 20.9871 575.285C20.7073 574.593 20.4276 573.902 20.1394 573.19C19.8883 572.562 19.6372 571.934 19.3785 571.287C18.6567 569.586 18.6567 569.586 17.5861 568.253C16.5003 566.801 15.988 565.491 15.4004 563.777C15.1805 563.147 14.9606 562.518 14.734 561.869C14.4955 561.175 14.2571 560.481 14.0114 559.766C11.9385 553.732 11.9385 553.732 9.55839 547.816C8.78218 546.015 8.78218 546.015 8.78218 544.706C8.35077 544.706 7.91936 544.706 7.47488 544.706C-1.08675 525.107 -1.08675 525.107 1.53584 517.416C3.05815 514.152 5.37314 512.209 8.12853 510.001C8.69476 509.252 8.69476 509.252 9.27242 508.487C10.6065 506.891 11.7904 505.874 13.4395 504.64C16.5057 502.336 19.1093 499.708 21.748 496.931C23.1625 495.595 23.1625 495.595 25.1235 494.941C27.0339 493.182 28.7064 491.294 30.3527 489.293C31.9435 487.404 33.457 486.386 35.5819 485.118C38.7427 482.247 41.5582 479.066 44.3449 475.836C46.474 473.395 48.3257 471.427 51.2696 470.058C51.4853 469.626 51.701 469.194 51.9232 468.748C52.3546 468.748 52.786 468.748 53.2305 468.748C53.378 468.271 53.5254 467.795 53.6774 467.303C54.7218 465.083 55.9847 463.986 57.8469 462.405C60.1078 460.592 60.1078 460.592 61.728 458.271C62.1594 458.271 62.5908 458.271 63.0353 458.271C63.0353 457.839 63.0353 457.407 63.0353 456.962C64.1214 456.302 65.2116 455.648 66.3036 454.997C67.3791 454.016 68.4236 453 69.4416 451.959C70.0268 451.365 70.612 450.772 71.2149 450.161C71.825 449.536 72.4348 448.911 73.0443 448.286C78.553 442.662 84.1292 437.475 90.3585 432.665C91.8374 431.48 91.8374 431.48 92.8863 429.959C93.1736 429.578 93.4609 429.197 93.757 428.805C94.1884 428.805 94.6198 428.805 95.0643 428.805C95.1047 428.427 95.1451 428.049 95.1868 427.659C95.935 425.584 97.238 424.88 98.9862 423.567C100.091 422.491 101.177 421.396 102.254 420.293C103.248 419.296 104.242 418.3 105.237 417.305C105.723 416.818 106.209 416.331 106.71 415.829C107.417 415.122 107.417 415.122 108.137 414.4C108.834 413.682 108.834 413.682 109.544 412.949C111.426 411.127 112.737 410.764 115.327 411.126Z" fill="#AC1CA2"/>
<path d="M235.337 6.03318C236.058 6.02223 236.78 6.01128 237.523 6C239.823 6.26457 241.015 6.81554 242.855 8.19754C244.458 10.6015 244.337 11.8713 244.325 14.7315C244.329 15.54 244.332 16.3486 244.336 17.1817C244.162 19.3052 244.162 19.3052 242.855 21.2654C242.423 21.2654 241.992 21.2654 241.547 21.2654C241.48 21.6158 241.412 21.9662 241.343 22.3272C240.36 25.7211 238.826 27.9844 236.318 30.4129C235.832 31.2619 235.832 31.2619 235.337 32.128C234.243 33.8592 233.529 34.1223 231.742 34.9866C231.082 36.1405 231.082 36.1405 230.434 37.6002C228.746 40.1955 226.974 42.8342 224.551 44.7875C223.688 44.7875 222.825 44.7875 221.936 44.7875C221.721 45.4344 221.505 46.0812 221.283 46.7477C220.851 46.7477 220.42 46.7477 219.975 46.7477C219.759 47.3946 219.544 48.0414 219.322 48.7079C218.25 49.3905 217.155 50.0365 216.053 50.668C215.255 51.2456 214.465 51.8345 213.681 52.4317C213.261 52.7496 212.841 53.0676 212.408 53.3952C211.537 54.0586 210.669 54.7257 209.803 55.3962C209.384 55.7116 208.965 56.0271 208.533 56.3521C208.157 56.6407 207.78 56.9293 207.393 57.2267C206.248 57.8554 206.248 57.8554 203.633 57.8554C203.417 58.5022 203.201 59.1491 202.979 59.8155C202.548 59.8155 202.116 59.8155 201.672 59.8155C201.456 60.4624 201.24 61.1093 201.018 61.7757C200.587 61.7757 200.155 61.7757 199.711 61.7757C199.495 62.4226 199.279 63.0694 199.057 63.7359C197.609 64.8589 197.609 64.8589 195.829 66.0228C193.751 67.3854 192.606 68.1799 191.212 70.2698C190.781 70.2698 190.35 70.2698 189.905 70.2698C189.878 70.6337 189.851 70.9975 189.823 71.3724C189.126 73.2156 188.064 73.8827 186.542 75.0682C184.452 76.933 182.815 79.178 181.072 81.3622C179.402 83.391 177.649 85.3036 175.851 87.2172C172.387 90.9385 169.333 94.8872 166.372 99.0191C166.05 99.4622 165.729 99.9054 165.397 100.362C164.342 101.817 163.293 103.276 162.245 104.736C161.916 105.192 161.587 105.647 161.247 106.116C159.4 108.719 157.86 111.321 156.481 114.199C155.775 115.634 154.942 116.938 154.033 118.253C153.701 118.743 153.368 119.232 153.025 119.736C152.33 120.743 151.634 121.748 150.936 122.753C148.956 125.646 147.366 128.394 146.107 131.689C145.933 132.097 145.758 132.506 145.579 132.927C141.617 142.533 142.367 155.931 145.454 165.665C145.885 165.665 146.316 165.665 146.761 165.665C146.761 166.096 146.761 166.528 146.761 166.972C147.192 166.972 147.624 166.972 148.068 166.972C148.176 167.592 148.284 168.212 148.395 168.85C149.797 173.808 154.229 177.895 157.874 181.347C158.663 182.357 158.663 182.357 159.467 183.388C164.331 188.128 173.331 187.532 179.688 187.506C184.323 187.383 188.296 186.596 192.52 184.613C193.02 184.379 193.521 184.145 194.037 183.904C194.919 183.471 195.795 183.024 196.662 182.559C197.749 182 197.749 182 199.425 181.469C204.078 179.203 206.664 174.656 209.202 170.343C209.521 169.878 209.841 169.412 210.17 168.932C210.601 168.932 211.033 168.932 211.477 168.932C211.558 168.568 211.639 168.204 211.722 167.829C212.796 163.86 213.875 162.713 217.36 160.438C217.66 159.927 217.96 159.415 218.269 158.889C220.115 155.875 223.058 154.034 225.858 151.944C226.242 151.657 226.625 151.369 227.02 151.074C233.694 146.35 243.491 146.74 251.353 147.37C255.994 148.307 259.69 150.688 262.466 154.557C263.76 158.331 263.941 162.581 262.259 166.219C260.062 169.712 257.516 172.951 254.94 176.17C253.899 177.462 253.899 177.462 252.946 179.141C251.591 181.379 249.968 183.447 248.084 185.267C247.653 185.267 247.221 185.267 246.777 185.267C246.534 185.847 246.534 185.847 246.287 186.438C245.341 188.107 244.387 188.899 242.855 190.045C242.332 190.438 241.81 190.831 241.271 191.237C239.582 192.457 237.872 193.643 236.154 194.823C234.344 196.069 232.689 197.277 231.17 198.866C229.846 200.228 228.942 200.972 227.166 201.602C226.303 201.602 225.44 201.602 224.551 201.602C224.335 202.249 224.12 202.895 223.897 203.562C222.278 204.473 222.278 204.473 220.22 205.4C217.235 206.821 214.953 208.259 212.555 210.504C211.004 211.797 209.288 212.557 207.463 213.398C205.785 214.251 204.427 215.438 202.979 216.63C202.548 216.63 202.116 216.63 201.672 216.63C201.537 217.021 201.402 217.411 201.263 217.814C200.039 219.76 198.476 220.209 196.442 221.203C196.226 221.85 196.011 222.497 195.788 223.164C194.695 224.172 194.695 224.172 193.337 225.246C191.006 227.21 189.485 229.135 188.013 231.79C187.29 232.965 187.29 232.965 186.317 233.922C185.159 235.097 184.531 236.277 183.777 237.742C182.755 239.646 181.732 241.307 180.304 242.929C178.859 244.646 178.294 245.944 177.485 247.993C176.613 248.864 175.742 249.735 174.87 250.606C174.237 251.724 173.605 252.843 172.988 253.97C171.691 256.112 170.001 257.897 168.333 259.754C168.005 260.141 167.677 260.528 167.34 260.928C164.922 263.774 162.365 266.478 159.753 269.146C159.425 269.489 159.096 269.831 158.757 270.184C156.82 272.138 155.19 273.16 152.644 274.128C152.429 274.775 152.213 275.422 151.991 276.088C149.784 277.809 147.582 279.289 145.127 280.621C142.57 282.079 140.066 283.515 138.263 285.889C137.938 288.328 137.912 288.992 138.917 291.116C140.256 292.865 141.698 294.43 143.23 296.012C144.649 297.493 145.894 298.996 147.129 300.631C149.15 303.296 151.345 305.756 153.622 308.204C154.605 309.411 154.605 309.411 154.605 310.718C155.164 310.956 155.164 310.956 155.734 311.198C157.502 312.182 158.669 313.348 160.078 314.799C160.615 315.346 161.152 315.893 161.705 316.457C162.826 317.611 163.946 318.764 165.066 319.918C165.604 320.466 166.142 321.014 166.696 321.578C167.183 322.08 167.669 322.581 168.171 323.098C169.658 324.456 171.183 325.376 172.909 326.4C173.355 327.266 173.792 328.136 174.216 329.013C175.076 329.471 175.95 329.903 176.831 330.32C180.258 332.344 182.751 333.949 184.676 337.507C185.394 337.929 185.394 337.929 186.126 338.358C188.268 339.665 189.94 341.275 191.695 343.043C192.039 343.385 192.382 343.728 192.736 344.08C193.457 344.8 194.176 345.521 194.894 346.243C195.996 347.352 197.105 348.454 198.215 349.556C198.916 350.257 199.616 350.958 200.316 351.66C200.649 351.99 200.982 352.32 201.325 352.66C203.633 354.999 203.633 354.999 203.633 356.456C203.985 356.6 204.337 356.744 204.7 356.892C206.767 358.055 208.379 359.613 210.088 361.234C210.456 361.577 210.823 361.921 211.202 362.275C211.983 363.007 212.764 363.739 213.543 364.473C215.142 365.976 216.748 367.472 218.355 368.966C219.109 369.667 219.863 370.369 220.615 371.072C222.519 372.846 224.449 374.578 226.423 376.274C229.402 378.866 232.162 381.656 234.929 384.47C235.906 385.463 236.885 386.455 237.865 387.446C238.291 387.879 238.716 388.312 239.154 388.757C240.195 389.835 240.195 389.835 241.547 390.432C241.547 390.863 241.547 391.295 241.547 391.739C241.933 391.911 242.319 392.083 242.716 392.26C244.225 393.08 245.187 393.929 246.378 395.156C246.786 395.571 247.193 395.986 247.613 396.413C248.251 397.071 248.251 397.071 248.901 397.742C251.849 400.739 254.792 403.661 258.007 406.374C259.976 408.105 261.782 409.999 263.622 411.864C265.382 413.598 267.23 415.203 269.1 416.815C271.96 419.318 274.252 421.772 276.193 425.062C277.714 426.742 279.06 428.096 281.024 429.235C285.429 431.957 288.869 436.356 292.204 440.269C293.627 441.898 294.824 443.166 296.708 444.268C301.363 447.122 305.055 451.84 308.569 455.973C310.47 458.155 312.269 459.516 314.761 460.998C317.368 462.85 319.309 465.029 321.375 467.438C324.605 471.115 328.168 474.399 331.867 477.594C333.443 478.971 334.92 480.362 336.333 481.907C336.333 482.338 336.333 482.77 336.333 483.214C336.901 483.3 336.901 483.3 337.48 483.387C339.344 483.997 340.177 484.901 341.522 486.317C341.979 486.792 342.436 487.266 342.906 487.754C343.536 488.418 343.536 488.418 344.178 489.094C344.731 489.647 345.283 490.199 345.853 490.769C346.732 491.647 347.609 492.527 348.478 493.415C351.81 496.798 355.35 499.894 358.968 502.966C359.548 503.469 360.127 503.972 360.725 504.49C361.53 505.178 361.53 505.178 362.351 505.881C365.751 509.449 366.096 512.774 365.982 517.507C365.446 522.806 363.621 527.655 361.097 532.313C360.114 534.38 359.691 536.521 359.213 538.752C358.781 538.752 358.35 538.752 357.906 538.752C357.852 539.345 357.798 539.938 357.742 540.549C357.252 542.672 357.252 542.672 355.985 543.857C353.99 545.972 353.786 548.359 353.33 551.167C352.898 551.167 352.467 551.167 352.022 551.167C351.896 551.87 351.896 551.87 351.767 552.588C350.857 556.803 349.236 560.81 347.201 564.602C345.324 568.197 344.133 571.983 342.907 575.836C342.751 576.325 342.595 576.814 342.434 577.318C342.297 577.755 342.16 578.193 342.02 578.643C340.706 582.304 340.706 582.304 338.948 583.183C338.475 584.486 338.063 585.811 337.682 587.144C334.964 596.354 334.964 596.354 333.065 599.518C332.634 599.733 332.202 599.949 331.758 600.171C331.185 601.679 330.68 603.165 330.205 604.704C329.916 605.601 329.626 606.498 329.334 607.394C329.191 607.834 329.048 608.275 328.901 608.728C327.303 613.553 325.604 618.083 321.952 621.733C319.74 622.099 317.629 622.079 315.415 621.733C313.944 620.385 313.944 620.385 312.8 618.466C312.103 617.654 311.394 616.851 310.676 616.057C308.878 614.051 308.878 614.051 308.878 612.586C308.447 612.586 308.015 612.586 307.571 612.586C307.409 612.073 307.247 611.561 307.08 611.034C306.459 609.266 306.459 609.266 305.127 608.775C303.093 607.725 301.666 606.168 300.094 604.541C299.79 604.231 299.487 603.922 299.174 603.603C298.267 602.678 297.362 601.751 296.458 600.824C295.924 600.317 295.391 599.809 294.842 599.285C293.525 597.909 292.466 596.607 291.359 595.074C289.158 592.075 286.589 589.555 283.915 586.981C281.159 584.326 278.734 581.967 276.847 578.609C275.688 577.454 275.688 577.454 274.396 576.445C272.12 574.526 270.214 572.491 268.293 570.225C266.85 568.592 265.324 567.071 263.773 565.541C261.403 563.201 259.173 560.8 257.009 558.27C255.904 557.019 254.749 555.848 253.559 554.679C251.159 552.312 248.859 549.942 247.206 546.978C246.005 545.102 244.714 543.908 243.018 542.468C240.595 540.345 238.466 538.193 236.399 535.73C234.076 533.134 231.558 530.725 229.052 528.305C226.947 526.242 225.362 524.342 223.897 521.764C223.121 520.935 222.318 520.129 221.487 519.355C220.254 518.203 220.254 518.203 219.322 517.19C219.322 516.759 219.322 516.328 219.322 515.883C218.954 515.728 218.587 515.573 218.208 515.414C216.367 514.387 215.086 513.13 213.602 511.636C213.079 511.118 212.557 510.599 212.018 510.064C210.823 508.696 210.823 508.696 210.823 507.389C210.176 507.174 209.529 506.958 208.862 506.736C208.193 505.657 207.541 504.566 206.901 503.469C206.005 502.502 205.077 501.563 204.123 500.651C201.41 498 198.916 495.233 196.442 492.361C192.743 488.124 188.89 484.096 184.841 480.194C182.131 477.544 182.131 477.544 181.407 475.373C180.324 474.357 179.172 473.472 178.001 472.56C176.831 471.453 176.831 471.453 175.943 469.924C174.849 468.152 173.699 466.866 172.218 465.408C171.688 464.882 171.158 464.356 170.612 463.815C170.042 463.256 169.472 462.697 168.885 462.121C168.297 461.539 167.71 460.957 167.104 460.357C165.229 458.499 163.35 456.644 161.469 454.791C158.993 452.352 156.522 449.908 154.054 447.461C153.484 446.902 152.914 446.343 152.327 445.767C151.797 445.242 151.266 444.716 150.72 444.175C150.254 443.716 149.789 443.257 149.309 442.785C148.003 441.323 147.085 439.823 146.107 438.13C145.102 436.933 144.063 435.765 143.002 434.618C142.697 434.287 142.392 433.956 142.078 433.616C138.955 430.265 135.697 427.048 132.406 423.863C130.266 421.765 128.633 419.846 127.15 417.221C126.362 416.363 125.544 415.532 124.699 414.73C123.02 413.097 121.426 411.458 119.919 409.666C116.403 405.573 112.476 401.85 108.642 398.058C106.653 396.089 104.675 394.11 102.71 392.117C101.966 391.364 101.966 391.364 101.206 390.595C100.705 390.087 100.204 389.578 99.6871 389.054C98.4782 387.784 98.4782 387.784 97.08 387.165C96.7909 386.673 96.5019 386.181 96.2041 385.675C94.6962 383.206 92.6853 381.47 90.5813 379.508C89.1834 377.96 88.613 376.699 87.9282 374.751C87.2885 374.084 86.634 373.43 85.9671 372.79C85.3092 371.704 84.6559 370.615 84.006 369.524C83.588 369.011 83.1701 368.499 82.7394 367.972C81.4296 366.305 80.4165 364.647 79.3969 362.798C78.8395 361.796 78.2384 360.819 77.6324 359.845C76.8153 358.416 76.8153 358.416 76.8153 357.109C76.4294 356.954 76.0434 356.799 75.6458 356.639C73.8789 355.616 73.1331 354.551 71.9943 352.862C71.5999 352.277 71.2056 351.693 70.7992 351.091C69.3534 348.848 67.9663 346.577 66.6192 344.273C65.7977 342.894 64.9234 341.574 64.0273 340.243C62.1797 337.337 61.1227 334.166 59.9366 330.948C59.0641 328.759 57.8844 327.032 56.5507 325.093C53.2082 318.81 51.1805 312.335 49.36 305.491C49.1645 304.758 48.969 304.026 48.7676 303.271C47.8518 299.71 47.0589 296.137 46.3724 292.525C46.1129 291.13 46.1129 291.13 45.734 289.84C44.2719 283.238 45.1967 273.838 46.7375 267.319C47.4373 264.353 47.6958 261.438 47.93 258.406C48.4718 252.394 50.0013 247.149 51.9748 241.459C52.4254 239.938 52.8587 238.413 53.2822 236.885C53.8411 234.868 54.4003 232.852 54.9598 230.836C55.368 229.364 55.7749 227.893 56.1804 226.42C56.3767 225.715 56.5731 225.009 56.7754 224.282C56.9519 223.643 57.1284 223.005 57.3103 222.348C57.8581 220.55 57.8581 220.55 58.5564 218.839C59.4182 216.637 59.5865 214.39 59.8192 212.056C60.2982 207.25 60.2982 207.25 61.1072 205.299C61.8723 203.324 62.169 201.504 62.4569 199.407C62.5677 198.624 62.6786 197.842 62.7927 197.036C62.9035 196.225 63.0143 195.413 63.1285 194.578C63.3516 192.961 63.5771 191.344 63.8052 189.728C63.903 189.013 64.0008 188.299 64.1016 187.562C64.395 185.92 64.395 185.92 65.0487 185.267C65.2493 183.742 65.4207 182.222 65.5799 180.693C66.1892 175.385 67.3031 170.287 68.6144 165.113C68.9823 163.66 69.3413 162.205 69.6987 160.749C71.44 153.688 71.44 153.688 72.2394 151.29C72.8866 151.29 73.5337 151.29 74.2005 151.29C74.3193 150.569 74.3193 150.569 74.4405 149.833C74.6049 148.877 74.6049 148.877 74.7725 147.901C74.8787 147.272 74.9849 146.643 75.0942 145.994C76.1093 141.354 76.1093 141.354 78.041 139.938C80.0666 138.39 80.8411 136.548 82.0449 134.302C82.4763 133.655 82.9078 133.009 83.3523 132.342C83.7837 132.342 84.2152 132.342 84.6597 132.342C84.6058 131.87 84.5518 131.399 84.4963 130.913C84.7103 128.507 85.7296 127.625 87.2745 125.808C87.4902 125.269 87.7059 124.73 87.9282 124.175C88.71 122.221 89.8511 120.88 91.1967 119.274C91.4124 118.843 91.6281 118.412 91.8504 117.967C92.3088 117.738 92.7672 117.509 93.2395 117.273C95.5399 115.724 96.8149 113.9 98.4614 111.694C100.037 109.691 101.805 107.963 103.63 106.189C106.31 103.52 108.739 100.628 111.094 97.6715C112.845 95.6643 114.728 94.0229 116.752 92.3014C118.135 91.1083 118.135 91.1083 119.633 89.2182C121.355 87.152 123.209 85.5036 125.25 83.7639C126.247 82.9002 127.198 81.9832 128.131 81.0508C129.927 79.2551 131.821 77.6126 133.743 75.9538C134.772 75.0411 135.749 74.0711 136.71 73.0876C138.405 71.4382 140.22 70.2725 142.185 68.963C142.657 68.4779 143.129 67.9927 143.615 67.4929C145.884 65.275 148.388 63.5548 150.995 61.7527C152.536 60.5534 153.462 59.4106 154.605 57.8554C155.037 57.8554 155.468 57.8554 155.913 57.8554C156.071 57.4772 156.23 57.099 156.393 56.7094C157.372 54.9729 158.488 53.9659 159.998 52.6691C160.523 52.2159 161.047 51.7628 161.587 51.2959C162.824 50.2511 164.063 49.2101 165.31 48.177C166.949 46.8651 166.949 46.8651 168.006 45.7268C169.119 44.661 170.351 43.9007 171.64 43.0647C175.864 40.1001 179.766 36.713 183.368 33.0265C184.676 31.7197 184.676 31.7197 186.174 31.1607C188.28 30.2707 189.686 29.0845 191.417 27.5951C195.013 24.5893 198.422 22.055 202.775 20.2853C204.993 19.44 204.993 19.44 206.452 17.7534C208.894 15.3687 211.679 14.2069 214.746 12.7713C215.591 12.3234 216.435 11.8743 217.279 11.4237C220.07 10.0203 222.995 9.0941 225.968 8.1516C227.802 7.58515 227.802 7.58515 229.426 6.82695C231.463 6.10438 233.178 6.04074 235.337 6.03318Z" fill="#2A468C"/>
<rect y="741" width="366" height="77" fill="#AC1CA2"/>
<rect y="691" width="366" height="27" fill="#2A468C"/>
<path d="M531.86 425.69C493.593 425.69 462.98 417.217 440.02 400.27C417.06 383.05 403.667 358.86 399.84 327.7H460.52C462.433 343.553 470.087 356.127 483.48 365.42C496.873 374.44 513.957 378.95 534.73 378.95C551.677 378.95 564.66 375.943 573.68 369.93C582.973 363.917 587.62 355.853 587.62 345.74C587.62 336.173 584.887 328.52 579.42 322.78C573.953 316.767 564.523 311.983 551.13 308.43L496.19 293.26C468.037 285.333 447.4 274.537 434.28 260.87C421.433 246.93 415.01 229.573 415.01 208.8C415.01 191.033 419.52 175.727 428.54 162.88C437.833 149.76 450.817 139.783 467.49 132.95C484.163 125.843 503.707 122.29 526.12 122.29C560.56 122.29 588.03 130.49 608.53 146.89C629.03 163.017 640.647 184.473 643.38 211.26H582.7C579.967 196.773 573.27 186.113 562.61 179.28C552.223 172.447 538.83 169.03 522.43 169.03C508.217 169.03 496.873 171.763 488.4 177.23C479.927 182.697 475.69 190.077 475.69 199.37C475.69 206.477 478.013 213.037 482.66 219.05C487.307 224.79 497.01 229.71 511.77 233.81L566.71 248.98C595.683 256.907 616.457 267.84 629.03 281.78C641.877 295.447 648.3 312.803 648.3 333.85C648.3 363.37 638.05 386.057 617.55 401.91C597.05 417.763 568.487 425.69 531.86 425.69ZM659.921 506.05L717.731 378.13L728.391 360.5L782.511 212.9H848.111L721.421 506.05H659.921ZM704.201 417.9L623.841 212.9H690.261L756.271 399.86L704.201 417.9ZM839.078 422V212.9H899.348V262.1H900.578V422H839.078ZM984.628 422V292.44C984.628 280.96 981.621 272.35 975.608 266.61C969.868 260.87 961.395 258 950.188 258C940.621 258 932.011 260.187 924.358 264.56C916.978 268.933 911.101 274.947 906.728 282.6C902.628 290.253 900.578 299.273 900.578 309.66L895.248 259.23C902.081 243.923 912.058 231.76 925.178 222.74C938.571 213.447 954.971 208.8 974.378 208.8C997.611 208.8 1015.38 215.36 1027.68 228.48C1039.98 241.327 1046.13 258.683 1046.13 280.55V422H984.628ZM1158.53 426.1C1135.29 426.1 1115.07 421.59 1097.85 412.57C1080.63 403.277 1067.23 390.43 1057.67 374.03C1048.37 357.63 1043.73 338.77 1043.73 317.45C1043.73 295.857 1048.37 276.997 1057.67 260.87C1067.23 244.47 1080.49 231.76 1097.44 222.74C1114.38 213.447 1134.06 208.8 1156.48 208.8C1178.07 208.8 1196.79 213.173 1212.65 221.92C1228.5 230.667 1240.8 242.83 1249.55 258.41C1258.29 273.99 1262.67 292.303 1262.67 313.35C1262.67 317.723 1262.53 321.823 1262.26 325.65C1261.98 329.203 1261.57 332.62 1261.03 335.9H1079.81V295.31H1211.42L1200.76 302.69C1200.76 285.743 1196.66 273.307 1188.46 265.38C1180.53 257.18 1169.6 253.08 1155.66 253.08C1139.53 253.08 1126.96 258.547 1117.94 269.48C1109.19 280.413 1104.82 296.813 1104.82 318.68C1104.82 340 1109.19 355.853 1117.94 366.24C1126.96 376.627 1140.35 381.82 1158.12 381.82C1167.96 381.82 1176.43 380.18 1183.54 376.9C1190.64 373.62 1195.97 368.29 1199.53 360.91H1257.34C1250.5 381.137 1238.75 397.127 1222.08 408.88C1205.68 420.36 1184.49 426.1 1158.53 426.1ZM1262.76 422V212.9H1323.03V262.1H1324.26V422H1262.76ZM1324.26 312.94L1318.93 263.33C1323.85 245.563 1331.91 232.033 1343.12 222.74C1354.32 213.447 1368.26 208.8 1384.94 208.8C1390.13 208.8 1393.96 209.347 1396.42 210.44V267.84C1395.05 267.293 1393.14 267.02 1390.68 267.02C1388.22 266.747 1385.21 266.61 1381.66 266.61C1361.98 266.61 1347.49 270.163 1338.2 277.27C1328.9 284.103 1324.26 295.993 1324.26 312.94ZM1486.46 510.15C1457.49 510.15 1433.85 504 1415.53 491.7C1397.49 479.4 1386.83 462.727 1383.55 441.68H1441.77C1443.96 446.873 1448.61 450.837 1455.71 453.57C1463.09 456.303 1472.39 457.67 1483.59 457.67C1502.18 457.67 1515.71 454.117 1524.18 447.01C1532.66 439.903 1536.89 428.833 1536.89 413.8V368.29L1540.17 369.11C1537.44 384.417 1529.51 396.58 1516.39 405.6C1503.27 414.347 1487.01 418.72 1467.6 418.72C1449.02 418.72 1432.75 414.483 1418.81 406.01C1405.15 397.263 1394.49 385.1 1386.83 369.52C1379.18 353.94 1375.35 335.627 1375.35 314.58C1375.35 293.26 1379.32 274.673 1387.24 258.82C1395.17 242.967 1406.24 230.667 1420.45 221.92C1434.94 213.173 1451.75 208.8 1470.88 208.8C1490.56 208.8 1506.55 213.447 1518.85 222.74C1531.43 232.033 1538.81 244.743 1540.99 260.87L1538.12 261.28V212.9H1598.39V412.98C1598.39 443.047 1588.42 466.69 1568.46 483.91C1548.51 501.403 1521.18 510.15 1486.46 510.15ZM1488.92 371.57C1503.41 371.57 1515.16 366.65 1524.18 356.81C1533.2 346.697 1537.71 332.347 1537.71 313.76C1537.71 295.173 1533.07 280.96 1523.77 271.12C1514.75 261.007 1502.86 255.95 1488.1 255.95C1473.89 255.95 1462.14 261.007 1452.84 271.12C1443.82 281.233 1439.31 295.583 1439.31 314.17C1439.31 332.757 1443.82 346.97 1452.84 356.81C1462.14 366.65 1474.16 371.57 1488.92 371.57ZM1625.42 506.05L1683.23 378.13L1693.89 360.5L1748.01 212.9H1813.61L1686.92 506.05H1625.42ZM1669.7 417.9L1589.34 212.9H1655.76L1721.77 399.86L1669.7 417.9Z" fill="#2A468C"/>
<path d="M626.274 737.137H605.587C605.21 734.46 604.438 732.083 603.273 730.005C602.108 727.895 600.613 726.101 598.786 724.621C596.96 723.141 594.85 722.007 592.457 721.22C590.096 720.433 587.53 720.039 584.759 720.039C579.753 720.039 575.392 721.283 571.676 723.771C567.961 726.227 565.08 729.816 563.033 734.539C560.986 739.231 559.963 744.93 559.963 751.636C559.963 758.532 560.986 764.326 563.033 769.017C565.111 773.709 568.008 777.251 571.723 779.644C575.439 782.037 579.737 783.233 584.617 783.233C587.357 783.233 589.891 782.871 592.221 782.147C594.583 781.423 596.677 780.368 598.503 778.983C600.329 777.566 601.841 775.85 603.037 773.835C604.265 771.819 605.115 769.521 605.587 766.939L626.274 767.033C625.739 771.473 624.401 775.755 622.26 779.88C620.15 783.973 617.301 787.641 613.711 790.885C610.153 794.096 605.902 796.647 600.959 798.536C596.047 800.394 590.49 801.322 584.287 801.322C575.659 801.322 567.945 799.37 561.144 795.466C554.374 791.562 549.022 785.91 545.086 778.51C541.181 771.111 539.229 762.153 539.229 751.636C539.229 741.088 541.213 732.115 545.18 724.715C549.147 717.316 554.532 711.68 561.333 707.807C568.134 703.902 575.785 701.95 584.287 701.95C589.891 701.95 595.087 702.737 599.873 704.312C604.69 705.886 608.957 708.185 612.672 711.207C616.387 714.199 619.41 717.867 621.74 722.212C624.102 726.557 625.613 731.532 626.274 737.137ZM655.793 800H633.878L667.27 703.273H693.624L726.969 800H705.054L680.825 725.376H680.069L655.793 800ZM654.423 761.98H706.188V777.944H654.423V761.98ZM819.516 703.273V800H801.852L759.77 739.12H759.062V800H738.611V703.273H756.559L798.31 764.105H799.16V703.273H819.516ZM921.758 737.137H901.071C900.693 734.46 899.922 732.083 898.757 730.005C897.592 727.895 896.096 726.101 894.27 724.621C892.443 723.141 890.334 722.007 887.941 721.22C885.579 720.433 883.013 720.039 880.242 720.039C875.236 720.039 870.875 721.283 867.16 723.771C863.444 726.227 860.563 729.816 858.517 734.539C856.47 739.231 855.447 744.93 855.447 751.636C855.447 758.532 856.47 764.326 858.517 769.017C860.595 773.709 863.491 777.251 867.207 779.644C870.922 782.037 875.22 783.233 880.101 783.233C882.84 783.233 885.375 782.871 887.705 782.147C890.066 781.423 892.16 780.368 893.986 778.983C895.813 777.566 897.324 775.85 898.52 773.835C899.748 771.819 900.599 769.521 901.071 766.939L921.758 767.033C921.222 771.473 919.884 775.755 917.743 779.88C915.633 783.973 912.784 787.641 909.194 790.885C905.636 794.096 901.386 796.647 896.442 798.536C891.53 800.394 885.973 801.322 879.77 801.322C871.143 801.322 863.428 799.37 856.627 795.466C849.858 791.562 844.505 785.91 840.569 778.51C836.665 771.111 834.713 762.153 834.713 751.636C834.713 741.088 836.696 732.115 840.664 724.715C844.631 717.316 850.015 711.68 856.816 707.807C863.617 703.902 871.269 701.95 879.77 701.95C885.375 701.95 890.57 702.737 895.356 704.312C900.173 705.886 904.44 708.185 908.155 711.207C911.871 714.199 914.894 717.867 917.224 722.212C919.585 726.557 921.096 731.532 921.758 737.137ZM936.423 800V703.273H1001.6V720.134H956.873V743.182H998.247V760.043H956.873V783.139H1001.79V800H936.423ZM1017.86 800V703.273H1056.02C1063.33 703.273 1069.56 704.579 1074.72 707.193C1079.92 709.775 1083.87 713.443 1086.58 718.197C1089.32 722.92 1090.69 728.478 1090.69 734.87C1090.69 741.293 1089.3 746.819 1086.53 751.447C1083.76 756.045 1079.75 759.571 1074.49 762.027C1069.26 764.483 1062.93 765.711 1055.5 765.711H1029.95V749.275H1052.2C1056.1 749.275 1059.34 748.74 1061.92 747.669C1064.51 746.598 1066.43 744.993 1067.69 742.852C1068.98 740.71 1069.62 738.05 1069.62 734.87C1069.62 731.658 1068.98 728.95 1067.69 726.746C1066.43 724.542 1064.49 722.873 1061.88 721.74C1059.3 720.575 1056.04 719.992 1052.1 719.992H1038.31V800H1017.86ZM1070.1 755.982L1094.14 800H1071.56L1048.04 755.982H1070.1ZM1156.37 703.273V800H1135.92V703.273H1156.37ZM1254.1 703.273V800H1236.44L1194.36 739.12H1193.65V800H1173.2V703.273H1191.15L1232.9 764.105H1233.75V703.273H1254.1ZM1323.47 731.091C1323.1 727.281 1321.47 724.322 1318.61 722.212C1315.74 720.102 1311.85 719.048 1306.94 719.048C1303.61 719.048 1300.79 719.52 1298.49 720.464C1296.19 721.378 1294.43 722.653 1293.2 724.29C1292 725.927 1291.4 727.785 1291.4 729.863C1291.34 731.595 1291.7 733.106 1292.49 734.397C1293.31 735.688 1294.43 736.806 1295.84 737.751C1297.26 738.664 1298.9 739.467 1300.76 740.159C1302.61 740.821 1304.6 741.387 1306.71 741.86L1315.4 743.938C1319.62 744.882 1323.49 746.142 1327.02 747.716C1330.54 749.291 1333.6 751.227 1336.18 753.526C1338.76 755.824 1340.76 758.532 1342.18 761.649C1343.62 764.766 1344.36 768.34 1344.4 772.37C1344.36 778.29 1342.85 783.422 1339.86 787.767C1336.9 792.081 1332.62 795.434 1327.02 797.827C1321.44 800.189 1314.72 801.37 1306.85 801.37C1299.04 801.37 1292.24 800.173 1286.44 797.78C1280.68 795.387 1276.18 791.845 1272.94 787.153C1269.73 782.43 1268.04 776.59 1267.88 769.631H1287.67C1287.89 772.874 1288.82 775.582 1290.46 777.755C1292.13 779.896 1294.35 781.517 1297.12 782.619C1299.92 783.69 1303.09 784.225 1306.61 784.225C1310.08 784.225 1313.08 783.721 1315.63 782.714C1318.22 781.706 1320.21 780.305 1321.63 778.51C1323.05 776.716 1323.76 774.653 1323.76 772.323C1323.76 770.151 1323.11 768.324 1321.82 766.844C1320.56 765.365 1318.7 764.105 1316.25 763.066C1313.82 762.027 1310.85 761.082 1307.32 760.232L1296.79 757.587C1288.63 755.604 1282.19 752.502 1277.47 748.283C1272.75 744.064 1270.4 738.38 1270.43 731.233C1270.4 725.376 1271.96 720.26 1275.11 715.883C1278.29 711.507 1282.65 708.09 1288.19 705.634C1293.73 703.178 1300.03 701.95 1307.08 701.95C1314.26 701.95 1320.53 703.178 1325.88 705.634C1331.27 708.09 1335.45 711.507 1338.45 715.883C1341.44 720.26 1342.98 725.329 1343.07 731.091H1323.47ZM1354.47 720.134V703.273H1433.91V720.134H1404.3V800H1384.08V720.134H1354.47ZM1467.44 703.273V800H1446.99V703.273H1467.44ZM1480.58 720.134V703.273H1560.03V720.134H1530.41V800H1510.2V720.134H1480.58ZM1632.85 703.273H1653.3V766.089C1653.3 773.142 1651.62 779.313 1648.25 784.603C1644.91 789.893 1640.24 794.018 1634.22 796.977C1628.21 799.906 1621.2 801.37 1613.21 801.37C1605.18 801.37 1598.16 799.906 1592.14 796.977C1586.13 794.018 1581.45 789.893 1578.11 784.603C1574.78 779.313 1573.11 773.142 1573.11 766.089V703.273H1593.56V764.341C1593.56 768.025 1594.36 771.3 1595.97 774.165C1597.6 777.03 1599.9 779.282 1602.86 780.919C1605.82 782.556 1609.27 783.375 1613.21 783.375C1617.17 783.375 1620.62 782.556 1623.55 780.919C1626.51 779.282 1628.79 777.03 1630.4 774.165C1632.04 771.3 1632.85 768.025 1632.85 764.341V703.273ZM1666.45 720.134V703.273H1745.89V720.134H1716.27V800H1696.06V720.134H1666.45ZM1758.97 800V703.273H1824.15V720.134H1779.42V743.182H1820.79V760.043H1779.42V783.139H1824.34V800H1758.97Z" fill="#AC1CA2"/>
<path d="M456.07 801.417C449.395 801.417 443.633 800.22 438.784 797.827C433.935 795.434 430.204 792.191 427.591 788.098C425.009 783.973 423.718 779.376 423.718 774.307C423.718 770.528 424.474 767.175 425.985 764.247C427.496 761.319 429.606 758.626 432.314 756.17C435.022 753.683 438.17 751.211 441.76 748.755L460.51 736.428C462.935 734.885 464.714 733.264 465.847 731.564C466.981 729.832 467.547 727.958 467.547 725.943C467.547 724.022 466.776 722.243 465.233 720.606C463.69 718.969 461.502 718.166 458.668 718.197C456.779 718.197 455.142 718.623 453.756 719.473C452.371 720.291 451.285 721.378 450.497 722.732C449.742 724.054 449.364 725.534 449.364 727.171C449.364 729.186 449.931 731.233 451.064 733.311C452.198 735.389 453.709 737.593 455.598 739.923C457.487 742.222 459.55 744.709 461.785 747.386L507.646 800H486.676L448.419 757.398C445.9 754.533 443.381 751.542 440.862 748.425C438.375 745.276 436.297 741.938 434.628 738.412C432.959 734.854 432.125 730.997 432.125 726.841C432.125 722.149 433.211 717.93 435.384 714.183C437.588 710.436 440.673 707.476 444.641 705.304C448.608 703.1 453.237 701.998 458.526 701.998C463.69 701.998 468.146 703.052 471.893 705.162C475.671 707.24 478.568 710.011 480.583 713.474C482.63 716.906 483.653 720.685 483.653 724.81C483.653 729.375 482.519 733.516 480.252 737.231C478.017 740.915 474.868 744.221 470.806 747.15L451.064 761.366C448.388 763.318 446.404 765.317 445.113 767.364C443.854 769.379 443.224 771.316 443.224 773.173C443.224 775.472 443.791 777.534 444.924 779.36C446.058 781.187 447.664 782.635 449.742 783.706C451.82 784.745 454.26 785.264 457.062 785.264C460.463 785.264 463.816 784.493 467.122 782.95C470.46 781.376 473.483 779.156 476.191 776.29C478.93 773.394 481.118 769.962 482.756 765.994C484.393 762.027 485.211 757.635 485.211 752.817H501.884C501.884 758.737 501.238 764.074 499.947 768.828C498.656 773.551 496.862 777.676 494.563 781.202C492.265 784.697 489.635 787.563 486.676 789.798C485.731 790.397 484.818 790.963 483.936 791.499C483.055 792.034 482.142 792.601 481.197 793.199C477.607 796.096 473.593 798.19 469.153 799.48C464.745 800.771 460.384 801.417 456.07 801.417Z" fill="#2A468C"/>
<path d="M462.099 606.261C461.827 603.511 460.656 601.375 458.588 599.852C456.52 598.33 453.713 597.568 450.168 597.568C447.759 597.568 445.724 597.909 444.065 598.591C442.406 599.25 441.134 600.17 440.247 601.352C439.384 602.534 438.952 603.875 438.952 605.375C438.906 606.625 439.168 607.716 439.736 608.648C440.327 609.58 441.134 610.386 442.156 611.068C443.179 611.727 444.361 612.307 445.702 612.807C447.043 613.284 448.474 613.693 449.997 614.034L456.27 615.534C459.315 616.216 462.111 617.125 464.656 618.261C467.202 619.398 469.406 620.795 471.27 622.455C473.134 624.114 474.577 626.068 475.599 628.318C476.645 630.568 477.179 633.148 477.202 636.057C477.179 640.33 476.088 644.034 473.929 647.17C471.793 650.284 468.702 652.705 464.656 654.432C460.634 656.136 455.781 656.989 450.099 656.989C444.463 656.989 439.554 656.125 435.372 654.398C431.213 652.67 427.963 650.114 425.622 646.727C423.304 643.318 422.088 639.102 421.974 634.08H436.259C436.418 636.42 437.088 638.375 438.27 639.943C439.474 641.489 441.077 642.659 443.077 643.455C445.099 644.227 447.384 644.614 449.929 644.614C452.429 644.614 454.599 644.25 456.44 643.523C458.304 642.795 459.747 641.784 460.77 640.489C461.793 639.193 462.304 637.705 462.304 636.023C462.304 634.455 461.838 633.136 460.906 632.068C459.997 631 458.656 630.091 456.884 629.341C455.134 628.591 452.986 627.909 450.44 627.295L442.838 625.386C436.952 623.955 432.304 621.716 428.895 618.67C425.486 615.625 423.793 611.523 423.815 606.364C423.793 602.136 424.918 598.443 427.19 595.284C429.486 592.125 432.634 589.659 436.634 587.886C440.634 586.114 445.179 585.227 450.27 585.227C455.452 585.227 459.974 586.114 463.838 587.886C467.724 589.659 470.747 592.125 472.906 595.284C475.065 598.443 476.179 602.102 476.247 606.261H462.099ZM530.256 586.182H545.017V631.523C545.017 636.614 543.801 641.068 541.369 644.886C538.96 648.705 535.585 651.682 531.244 653.818C526.903 655.932 521.847 656.989 516.074 656.989C510.278 656.989 505.21 655.932 500.869 653.818C496.528 651.682 493.153 648.705 490.744 644.886C488.335 641.068 487.131 636.614 487.131 631.523V586.182H501.892V630.261C501.892 632.92 502.472 635.284 503.631 637.352C504.813 639.42 506.472 641.045 508.608 642.227C510.744 643.409 513.233 644 516.074 644C518.938 644 521.426 643.409 523.54 642.227C525.676 641.045 527.324 639.42 528.483 637.352C529.665 635.284 530.256 632.92 530.256 630.261V586.182ZM557.162 656V586.182H584.707C590.003 586.182 594.514 587.193 598.241 589.216C601.969 591.216 604.81 594 606.764 597.568C608.741 601.114 609.73 605.205 609.73 609.841C609.73 614.477 608.73 618.568 606.73 622.114C604.73 625.659 601.832 628.42 598.037 630.398C594.264 632.375 589.696 633.364 584.332 633.364H566.776V621.534H581.946C584.787 621.534 587.128 621.045 588.969 620.068C590.832 619.068 592.219 617.693 593.128 615.943C594.06 614.17 594.526 612.136 594.526 609.841C594.526 607.523 594.06 605.5 593.128 603.773C592.219 602.023 590.832 600.67 588.969 599.716C587.105 598.739 584.741 598.25 581.878 598.25H571.923V656H557.162ZM619.318 656V586.182H666.364V598.352H634.08V614.989H663.943V627.159H634.08V643.83H666.5V656H619.318ZM678.099 656V586.182H705.645C710.918 586.182 715.418 587.125 719.145 589.011C722.895 590.875 725.747 593.523 727.702 596.955C729.679 600.364 730.668 604.375 730.668 608.989C730.668 613.625 729.668 617.614 727.668 620.955C725.668 624.273 722.77 626.818 718.974 628.591C715.202 630.364 710.634 631.25 705.27 631.25H686.827V619.386H702.884C705.702 619.386 708.043 619 709.906 618.227C711.77 617.455 713.156 616.295 714.065 614.75C714.997 613.205 715.463 611.284 715.463 608.989C715.463 606.67 714.997 604.716 714.065 603.125C713.156 601.534 711.759 600.33 709.872 599.511C708.009 598.67 705.656 598.25 702.815 598.25H692.861V656H678.099ZM715.804 624.227L733.156 656H716.861L699.884 624.227H715.804ZM801.193 606.261C800.92 603.511 799.75 601.375 797.682 599.852C795.614 598.33 792.807 597.568 789.261 597.568C786.852 597.568 784.818 597.909 783.159 598.591C781.5 599.25 780.227 600.17 779.341 601.352C778.477 602.534 778.045 603.875 778.045 605.375C778 606.625 778.261 607.716 778.83 608.648C779.42 609.58 780.227 610.386 781.25 611.068C782.273 611.727 783.455 612.307 784.795 612.807C786.136 613.284 787.568 613.693 789.091 614.034L795.364 615.534C798.409 616.216 801.205 617.125 803.75 618.261C806.295 619.398 808.5 620.795 810.364 622.455C812.227 624.114 813.67 626.068 814.693 628.318C815.739 630.568 816.273 633.148 816.295 636.057C816.273 640.33 815.182 644.034 813.023 647.17C810.886 650.284 807.795 652.705 803.75 654.432C799.727 656.136 794.875 656.989 789.193 656.989C783.557 656.989 778.648 656.125 774.466 654.398C770.307 652.67 767.057 650.114 764.716 646.727C762.398 643.318 761.182 639.102 761.068 634.08H775.352C775.511 636.42 776.182 638.375 777.364 639.943C778.568 641.489 780.17 642.659 782.17 643.455C784.193 644.227 786.477 644.614 789.023 644.614C791.523 644.614 793.693 644.25 795.534 643.523C797.398 642.795 798.841 641.784 799.864 640.489C800.886 639.193 801.398 637.705 801.398 636.023C801.398 634.455 800.932 633.136 800 632.068C799.091 631 797.75 630.091 795.977 629.341C794.227 628.591 792.08 627.909 789.534 627.295L781.932 625.386C776.045 623.955 771.398 621.716 767.989 618.67C764.58 615.625 762.886 611.523 762.909 606.364C762.886 602.136 764.011 598.443 766.284 595.284C768.58 592.125 771.727 589.659 775.727 587.886C779.727 586.114 784.273 585.227 789.364 585.227C794.545 585.227 799.068 586.114 802.932 587.886C806.818 589.659 809.841 592.125 812 595.284C814.159 598.443 815.273 602.102 815.341 606.261H801.193ZM826.224 656V586.182H853.77C859.065 586.182 863.577 587.193 867.304 589.216C871.031 591.216 873.872 594 875.827 597.568C877.804 601.114 878.793 605.205 878.793 609.841C878.793 614.477 877.793 618.568 875.793 622.114C873.793 625.659 870.895 628.42 867.099 630.398C863.327 632.375 858.759 633.364 853.395 633.364H835.838V621.534H851.009C853.849 621.534 856.19 621.045 858.031 620.068C859.895 619.068 861.281 617.693 862.19 615.943C863.122 614.17 863.588 612.136 863.588 609.841C863.588 607.523 863.122 605.5 862.19 603.773C861.281 602.023 859.895 600.67 858.031 599.716C856.168 598.739 853.804 598.25 850.94 598.25H840.986V656H826.224ZM888.381 656V586.182H935.426V598.352H903.142V614.989H933.006V627.159H903.142V643.83H935.562V656H888.381ZM1008.76 610.625H993.832C993.56 608.693 993.003 606.977 992.162 605.477C991.321 603.955 990.241 602.659 988.923 601.591C987.605 600.523 986.082 599.705 984.355 599.136C982.651 598.568 980.798 598.284 978.798 598.284C975.185 598.284 972.037 599.182 969.355 600.977C966.673 602.75 964.594 605.341 963.116 608.75C961.639 612.136 960.901 616.25 960.901 621.091C960.901 626.068 961.639 630.25 963.116 633.636C964.616 637.023 966.707 639.58 969.389 641.307C972.071 643.034 975.173 643.898 978.696 643.898C980.673 643.898 982.503 643.636 984.185 643.114C985.889 642.591 987.401 641.83 988.719 640.83C990.037 639.807 991.128 638.568 991.991 637.114C992.878 635.659 993.491 634 993.832 632.136L1008.76 632.205C1008.38 635.409 1007.41 638.5 1005.87 641.477C1004.34 644.432 1002.29 647.08 999.696 649.42C997.128 651.739 994.06 653.58 990.491 654.943C986.946 656.284 982.935 656.955 978.457 656.955C972.23 656.955 966.662 655.545 961.753 652.727C956.866 649.909 953.003 645.83 950.162 640.489C947.344 635.148 945.935 628.682 945.935 621.091C945.935 613.477 947.366 607 950.23 601.659C953.094 596.318 956.98 592.25 961.889 589.455C966.798 586.636 972.321 585.227 978.457 585.227C982.503 585.227 986.253 585.795 989.707 586.932C993.185 588.068 996.264 589.727 998.946 591.909C1001.63 594.068 1003.81 596.716 1005.49 599.852C1007.2 602.989 1008.29 606.58 1008.76 610.625ZM1034.11 586.182V656H1019.35V586.182H1034.11ZM1058.29 656H1042.47L1066.57 586.182H1085.6L1109.66 656H1093.85L1076.36 602.136H1075.81L1058.29 656ZM1057.3 628.557H1094.66V640.08H1057.3V628.557ZM1118.07 656V586.182H1132.83V643.83H1162.76V656H1118.07ZM1187.3 586.182V656H1172.54V586.182H1187.3ZM1196.78 598.352V586.182H1254.12V598.352H1232.75V656H1218.16V598.352H1196.78ZM1259.48 586.182H1276.01L1291.93 616.25H1292.61L1308.53 586.182H1325.07L1299.6 631.318V656H1284.94V631.318L1259.48 586.182ZM1355.35 656V586.182H1370.11V614.989H1400.08V586.182H1414.8V656H1400.08V627.159H1370.11V656H1355.35ZM1491.13 621.091C1491.13 628.705 1489.69 635.182 1486.8 640.523C1483.94 645.864 1480.03 649.943 1475.08 652.761C1470.14 655.557 1464.6 656.955 1458.44 656.955C1452.24 656.955 1446.67 655.545 1441.74 652.727C1436.8 649.909 1432.91 645.83 1430.04 640.489C1427.18 635.148 1425.75 628.682 1425.75 621.091C1425.75 613.477 1427.18 607 1430.04 601.659C1432.91 596.318 1436.8 592.25 1441.74 589.455C1446.67 586.636 1452.24 585.227 1458.44 585.227C1464.6 585.227 1470.14 586.636 1475.08 589.455C1480.03 592.25 1483.94 596.318 1486.8 601.659C1489.69 607 1491.13 613.477 1491.13 621.091ZM1476.17 621.091C1476.17 616.159 1475.43 612 1473.95 608.614C1472.5 605.227 1470.44 602.659 1467.78 600.909C1465.12 599.159 1462.01 598.284 1458.44 598.284C1454.87 598.284 1451.76 599.159 1449.1 600.909C1446.44 602.659 1444.37 605.227 1442.89 608.614C1441.44 612 1440.71 616.159 1440.71 621.091C1440.71 626.023 1441.44 630.182 1442.89 633.568C1444.37 636.955 1446.44 639.523 1449.1 641.273C1451.76 643.023 1454.87 643.898 1458.44 643.898C1462.01 643.898 1465.12 643.023 1467.78 641.273C1470.44 639.523 1472.5 636.955 1473.95 633.568C1475.43 630.182 1476.17 626.023 1476.17 621.091ZM1539.94 606.261C1539.67 603.511 1538.5 601.375 1536.43 599.852C1534.36 598.33 1531.56 597.568 1528.01 597.568C1525.6 597.568 1523.57 597.909 1521.91 598.591C1520.25 599.25 1518.98 600.17 1518.09 601.352C1517.23 602.534 1516.8 603.875 1516.8 605.375C1516.75 606.625 1517.01 607.716 1517.58 608.648C1518.17 609.58 1518.98 610.386 1520 611.068C1521.02 611.727 1522.2 612.307 1523.55 612.807C1524.89 613.284 1526.32 613.693 1527.84 614.034L1534.11 615.534C1537.16 616.216 1539.95 617.125 1542.5 618.261C1545.05 619.398 1547.25 620.795 1549.11 622.455C1550.98 624.114 1552.42 626.068 1553.44 628.318C1554.49 630.568 1555.02 633.148 1555.05 636.057C1555.02 640.33 1553.93 644.034 1551.77 647.17C1549.64 650.284 1546.55 652.705 1542.5 654.432C1538.48 656.136 1533.63 656.989 1527.94 656.989C1522.31 656.989 1517.4 656.125 1513.22 654.398C1509.06 652.67 1505.81 650.114 1503.47 646.727C1501.15 643.318 1499.93 639.102 1499.82 634.08H1514.1C1514.26 636.42 1514.93 638.375 1516.11 639.943C1517.32 641.489 1518.92 642.659 1520.92 643.455C1522.94 644.227 1525.23 644.614 1527.77 644.614C1530.27 644.614 1532.44 644.25 1534.28 643.523C1536.15 642.795 1537.59 641.784 1538.61 640.489C1539.64 639.193 1540.15 637.705 1540.15 636.023C1540.15 634.455 1539.68 633.136 1538.75 632.068C1537.84 631 1536.5 630.091 1534.73 629.341C1532.98 628.591 1530.83 627.909 1528.28 627.295L1520.68 625.386C1514.8 623.955 1510.15 621.716 1506.74 618.67C1503.33 615.625 1501.64 611.523 1501.66 606.364C1501.64 602.136 1502.76 598.443 1505.03 595.284C1507.33 592.125 1510.48 589.659 1514.48 587.886C1518.48 586.114 1523.02 585.227 1528.11 585.227C1533.3 585.227 1537.82 586.114 1541.68 587.886C1545.57 589.659 1548.59 592.125 1550.75 595.284C1552.91 598.443 1554.02 602.102 1554.09 606.261H1539.94ZM1564.97 656V586.182H1592.52C1597.82 586.182 1602.33 587.193 1606.05 589.216C1609.78 591.216 1612.62 594 1614.58 597.568C1616.55 601.114 1617.54 605.205 1617.54 609.841C1617.54 614.477 1616.54 618.568 1614.54 622.114C1612.54 625.659 1609.64 628.42 1605.85 630.398C1602.08 632.375 1597.51 633.364 1592.14 633.364H1574.59V621.534H1589.76C1592.6 621.534 1594.94 621.045 1596.78 620.068C1598.64 619.068 1600.03 617.693 1600.94 615.943C1601.87 614.17 1602.34 612.136 1602.34 609.841C1602.34 607.523 1601.87 605.5 1600.94 603.773C1600.03 602.023 1598.64 600.67 1596.78 599.716C1594.92 598.739 1592.55 598.25 1589.69 598.25H1579.74V656H1564.97ZM1641.89 586.182V656H1627.13V586.182H1641.89ZM1651.38 598.352V586.182H1708.72V598.352H1687.34V656H1672.75V598.352H1651.38ZM1721.66 656H1705.85L1729.95 586.182H1748.97L1773.04 656H1757.22L1739.73 602.136H1739.19L1721.66 656ZM1720.68 628.557H1758.04V640.08H1720.68V628.557ZM1781.44 656V586.182H1796.2V643.83H1826.14V656H1781.44Z" fill="#2A468C"/>
<rect y="916" width="1809" height="414" rx="191" fill="#1C4D98"/>
<path d="M262.018 1204.19C250.63 1204.19 240.118 1202.22 230.482 1198.28C220.846 1194.19 212.451 1188.49 205.297 1181.19C198.289 1173.89 192.814 1165.28 188.872 1155.35C184.93 1145.28 182.959 1134.33 182.959 1122.5C182.959 1110.68 184.857 1099.87 188.653 1090.09C192.595 1080.31 198.07 1071.84 205.078 1064.69C212.232 1057.39 220.627 1051.84 230.263 1048.04C239.899 1044.1 250.484 1042.13 262.018 1042.13C275.012 1042.13 286.692 1044.68 297.058 1049.79C307.57 1054.76 316.111 1061.84 322.681 1071.04C329.397 1080.09 333.485 1090.75 334.945 1103.01H302.095C300.197 1091.77 295.598 1083.3 288.298 1077.61C280.998 1071.77 272.311 1068.85 262.237 1068.85C253.331 1068.85 245.447 1070.96 238.585 1075.2C231.869 1079.43 226.613 1085.56 222.817 1093.59C219.021 1101.48 217.123 1111.04 217.123 1122.28C217.123 1133.67 219.021 1143.53 222.817 1151.85C226.759 1160.02 232.161 1166.38 239.023 1170.9C245.885 1175.28 253.769 1177.47 262.675 1177.47C272.165 1177.47 280.56 1174.62 287.86 1168.93C295.16 1163.24 299.905 1154.77 302.095 1143.53H335.383C333.485 1155.79 329.178 1166.52 322.462 1175.72C315.746 1184.77 307.205 1191.78 296.839 1196.74C286.473 1201.71 274.866 1204.19 262.018 1204.19ZM337.554 1202L394.056 1044.32H422.964L371.061 1202H337.554ZM453.186 1202L401.502 1044.32H431.724L488.226 1202H453.186ZM367.338 1140.9H455.814V1167.18H367.338V1140.9ZM500.848 1202V1044.32H571.366C582.754 1044.32 592.682 1046.29 601.15 1050.23C609.618 1054.03 616.188 1059.43 620.86 1066.44C625.532 1073.45 627.868 1081.62 627.868 1090.97C627.868 1100.16 625.532 1108.27 620.86 1115.28C616.188 1122.14 609.618 1127.54 601.15 1131.48C592.682 1135.28 582.754 1137.18 571.366 1137.18H527.566V1112.43H570.49C578.52 1112.43 584.652 1110.6 588.886 1106.95C593.266 1103.16 595.456 1097.9 595.456 1091.19C595.456 1084.32 593.339 1079.14 589.105 1075.64C584.871 1071.99 578.666 1070.16 570.49 1070.16H534.574V1202H500.848ZM589.762 1202L526.471 1120.09H562.168L635.314 1202H589.762ZM648.009 1202V1044.32H681.735V1202H648.009ZM663.777 1202V1176.16H765.393V1202H663.777ZM663.777 1134.11V1108.71H757.728V1134.11H663.777ZM663.777 1070.16V1044.32H762.765V1070.16H663.777ZM826.802 1202V1044.32H860.528V1202H826.802ZM947.232 1203.97C926.792 1203.97 910.44 1199.44 898.176 1190.39C885.912 1181.19 878.758 1168.27 876.714 1151.63H909.126C910.148 1160.1 914.236 1166.81 921.39 1171.78C928.544 1176.6 937.669 1179 948.765 1179C957.817 1179 964.752 1177.4 969.57 1174.19C974.534 1170.97 977.016 1166.67 977.016 1161.27C977.016 1156.16 975.556 1152.07 972.636 1149C969.716 1145.79 964.679 1143.23 957.525 1141.34L928.179 1133.23C913.141 1129 902.118 1123.23 895.11 1115.93C888.248 1108.49 884.817 1099.22 884.817 1088.12C884.817 1078.63 887.226 1070.45 892.044 1063.59C897.008 1056.58 903.943 1051.25 912.849 1047.6C921.755 1043.81 932.194 1041.91 944.166 1041.91C962.562 1041.91 977.235 1046.29 988.185 1055.05C999.135 1063.66 1005.34 1075.13 1006.8 1089.43H974.388C972.928 1081.7 969.351 1076 963.657 1072.35C958.109 1068.7 950.955 1066.88 942.195 1066.88C934.603 1066.88 928.544 1068.34 924.018 1071.26C919.492 1074.18 917.229 1078.12 917.229 1083.08C917.229 1086.88 918.47 1090.38 920.952 1093.59C923.434 1096.66 928.617 1099.29 936.501 1101.48L965.847 1109.58C981.323 1113.82 992.419 1119.66 999.135 1127.1C1006 1134.4 1009.43 1143.67 1009.43 1154.91C1009.43 1170.68 1003.95 1182.8 993.003 1191.27C982.053 1199.74 966.796 1203.97 947.232 1203.97ZM1066.97 1202V1044.32H1100.7V1202H1066.97ZM1169.03 1202V1044.32H1202.75V1202H1169.03ZM1082.74 1106.95H1184.36V1132.8H1082.74V1106.95ZM1224.6 1202V1044.32H1258.32V1202H1224.6ZM1240.36 1202V1176.16H1341.98V1202H1240.36ZM1240.36 1134.11V1108.71H1334.31V1134.11H1240.36ZM1240.36 1070.16V1044.32H1339.35V1070.16H1240.36ZM1359.31 1202V1044.32H1429.83C1441.22 1044.32 1451.14 1046.29 1459.61 1050.23C1468.08 1054.03 1474.65 1059.43 1479.32 1066.44C1483.99 1073.45 1486.33 1081.62 1486.33 1090.97C1486.33 1100.16 1483.99 1108.27 1479.32 1115.28C1474.65 1122.14 1468.08 1127.54 1459.61 1131.48C1451.14 1135.28 1441.22 1137.18 1429.83 1137.18H1386.03V1112.43H1428.95C1436.98 1112.43 1443.11 1110.6 1447.35 1106.95C1451.73 1103.16 1453.92 1097.9 1453.92 1091.19C1453.92 1084.32 1451.8 1079.14 1447.57 1075.64C1443.33 1071.99 1437.13 1070.16 1428.95 1070.16H1393.04V1202H1359.31ZM1448.22 1202L1384.93 1120.09H1420.63L1493.78 1202H1448.22ZM1506.47 1202V1044.32H1540.2V1202H1506.47ZM1522.24 1202V1176.16H1623.86V1202H1522.24ZM1522.24 1134.11V1108.71H1616.19V1134.11H1522.24ZM1522.24 1070.16V1044.32H1621.23V1070.16H1522.24Z" fill="white"/>
</svg>
